<svg xmlns="http://www.w3.org/2000/svg" width="360" height="360" viewBox="0 0 360 360">
<defs>
  <radialGradient id="capGold" cx="35%" cy="30%" r="70%">
    <stop offset="0%" stop-color="#FFF6D0"/>
    <stop offset="60%" stop-color="#FFBE4F"/>
    <stop offset="100%" stop-color="#B85A12"/>
  </radialGradient>
  <linearGradient id="heart" x1="0" y1="0" x2="0" y2="1">
    <stop offset="0%" stop-color="#FF6A7A"/>
    <stop offset="55%" stop-color="#FF1F47"/>
    <stop offset="100%" stop-color="#C8002B"/>
  </linearGradient>
  <filter id="shadow" x="-40%" y="-40%" width="180%" height="180%">
    <feDropShadow dx="0" dy="10" stdDeviation="12" flood-color="#000" flood-opacity="0.25"/>
  </filter>
</defs>
<g filter="url(#shadow)"><circle cx="180" cy="180" r="150" fill="url(#capGold)"/><circle cx="180" cy="180" r="120" fill="rgba(255,255,255,0.14)"/></g>
<g transform="translate(90,115) scale(1.8)" filter="url(#shadow)">
  <path d="M50 85 C20 65 5 45 12 28 C20 10 40 10 50 24 C60 10 80 10 88 28 C95 45 80 65 50 85 Z"
        fill="url(#heart)"/>
  <path d="M28 30 C30 18 44 14 50 26 C42 22 36 24 32 32 Z" fill="white" opacity="0.18"/>
</g>
</svg>