<svg xmlns="http://www.w3.org/2000/svg" width="1100" height="1100" viewBox="0 0 1100 1100">
<defs>
  <linearGradient id="goldGrad" x1="0" y1="0" x2="0" y2="1">
    <stop offset="0%" stop-color="#FFE6A3"/>
    <stop offset="45%" stop-color="#FFB54A"/>
    <stop offset="100%" stop-color="#C56A1C"/>
  </linearGradient>
  <linearGradient id="goldGrad2" x1="0" y1="0" x2="1" y2="1">
    <stop offset="0%" stop-color="#FFF2C6"/>
    <stop offset="55%" stop-color="#FFB85A"/>
    <stop offset="100%" stop-color="#9C4C10"/>
  </linearGradient>
  <radialGradient id="bulbGrad" cx="35%" cy="35%" r="70%">
    <stop offset="0%" stop-color="#FFFFFF"/>
    <stop offset="40%" stop-color="#FFF3B0"/>
    <stop offset="100%" stop-color="#FFCC4D"/>
  </radialGradient>
  <filter id="shadow" x="-40%" y="-40%" width="180%" height="180%">
    <feDropShadow dx="0" dy="12" stdDeviation="14" flood-color="#000" flood-opacity="0.25"/>
  </filter>
</defs>
<g filter="url(#shadow)"><circle cx="550" cy="550" r="520" fill="url(#goldGrad2)"/><circle cx="550" cy="550" r="460" fill="#000" opacity="0.12"/><circle cx="550" cy="550" r="450" fill="url(#goldGrad)"/><circle cx="550" cy="550" r="420" fill="#ffffff" opacity="0.08"/></g>
<g><circle cx="550.0" cy="60.0" r="16" fill="url(#bulbGrad)" opacity="0.95"/>
<circle cx="619.7" cy="65.0" r="16" fill="url(#bulbGrad)" opacity="0.95"/>
<circle cx="688.0" cy="79.8" r="16" fill="url(#bulbGrad)" opacity="0.95"/>
<circle cx="753.6" cy="104.3" r="16" fill="url(#bulbGrad)" opacity="0.95"/>
<circle cx="814.9" cy="137.8" r="16" fill="url(#bulbGrad)" opacity="0.95"/>
<circle cx="870.9" cy="179.7" r="16" fill="url(#bulbGrad)" opacity="0.95"/>
<circle cx="920.3" cy="229.1" r="16" fill="url(#bulbGrad)" opacity="0.95"/>
<circle cx="962.2" cy="285.1" r="16" fill="url(#bulbGrad)" opacity="0.95"/>
<circle cx="995.7" cy="346.4" r="16" fill="url(#bulbGrad)" opacity="0.95"/>
<circle cx="1020.2" cy="412.0" r="16" fill="url(#bulbGrad)" opacity="0.95"/>
<circle cx="1035.0" cy="480.3" r="16" fill="url(#bulbGrad)" opacity="0.95"/>
<circle cx="1040.0" cy="550.0" r="16" fill="url(#bulbGrad)" opacity="0.95"/>
<circle cx="1035.0" cy="619.7" r="16" fill="url(#bulbGrad)" opacity="0.95"/>
<circle cx="1020.2" cy="688.0" r="16" fill="url(#bulbGrad)" opacity="0.95"/>
<circle cx="995.7" cy="753.6" r="16" fill="url(#bulbGrad)" opacity="0.95"/>
<circle cx="962.2" cy="814.9" r="16" fill="url(#bulbGrad)" opacity="0.95"/>
<circle cx="920.3" cy="870.9" r="16" fill="url(#bulbGrad)" opacity="0.95"/>
<circle cx="870.9" cy="920.3" r="16" fill="url(#bulbGrad)" opacity="0.95"/>
<circle cx="814.9" cy="962.2" r="16" fill="url(#bulbGrad)" opacity="0.95"/>
<circle cx="753.6" cy="995.7" r="16" fill="url(#bulbGrad)" opacity="0.95"/>
<circle cx="688.0" cy="1020.2" r="16" fill="url(#bulbGrad)" opacity="0.95"/>
<circle cx="619.7" cy="1035.0" r="16" fill="url(#bulbGrad)" opacity="0.95"/>
<circle cx="550.0" cy="1040.0" r="16" fill="url(#bulbGrad)" opacity="0.95"/>
<circle cx="480.3" cy="1035.0" r="16" fill="url(#bulbGrad)" opacity="0.95"/>
<circle cx="412.0" cy="1020.2" r="16" fill="url(#bulbGrad)" opacity="0.95"/>
<circle cx="346.4" cy="995.7" r="16" fill="url(#bulbGrad)" opacity="0.95"/>
<circle cx="285.1" cy="962.2" r="16" fill="url(#bulbGrad)" opacity="0.95"/>
<circle cx="229.1" cy="920.3" r="16" fill="url(#bulbGrad)" opacity="0.95"/>
<circle cx="179.7" cy="870.9" r="16" fill="url(#bulbGrad)" opacity="0.95"/>
<circle cx="137.8" cy="814.9" r="16" fill="url(#bulbGrad)" opacity="0.95"/>
<circle cx="104.3" cy="753.6" r="16" fill="url(#bulbGrad)" opacity="0.95"/>
<circle cx="79.8" cy="688.0" r="16" fill="url(#bulbGrad)" opacity="0.95"/>
<circle cx="65.0" cy="619.7" r="16" fill="url(#bulbGrad)" opacity="0.95"/>
<circle cx="60.0" cy="550.0" r="16" fill="url(#bulbGrad)" opacity="0.95"/>
<circle cx="65.0" cy="480.3" r="16" fill="url(#bulbGrad)" opacity="0.95"/>
<circle cx="79.8" cy="412.0" r="16" fill="url(#bulbGrad)" opacity="0.95"/>
<circle cx="104.3" cy="346.4" r="16" fill="url(#bulbGrad)" opacity="0.95"/>
<circle cx="137.8" cy="285.1" r="16" fill="url(#bulbGrad)" opacity="0.95"/>
<circle cx="179.7" cy="229.1" r="16" fill="url(#bulbGrad)" opacity="0.95"/>
<circle cx="229.1" cy="179.7" r="16" fill="url(#bulbGrad)" opacity="0.95"/>
<circle cx="285.1" cy="137.8" r="16" fill="url(#bulbGrad)" opacity="0.95"/>
<circle cx="346.4" cy="104.3" r="16" fill="url(#bulbGrad)" opacity="0.95"/>
<circle cx="412.0" cy="79.8" r="16" fill="url(#bulbGrad)" opacity="0.95"/>
<circle cx="480.3" cy="65.0" r="16" fill="url(#bulbGrad)" opacity="0.95"/></g>
<circle cx="550" cy="550" r="390" fill="transparent" stroke="rgba(255,255,255,0.35)" stroke-width="6"/>
</svg>